{
  "accessors": [
    {
      "bufferView": 2,
      "componentType": 5126,
      "count": 62166,
      "max": [
        3.335045099258423,
        -1.5381360054016113,
        6.726347923278809
      ],
      "min": [
        -3.3809568881988525,
        -9.481725692749023,
        -6.261966228485107
      ],
      "type": "VEC3"
    },
    {
      "bufferView": 2,
      "byteOffset": 745992,
      "componentType": 5126,
      "count": 62166,
      "max": [
        0.9999982118606567,
        0.9999861121177673,
        1.0
      ],
      "min": [
        -0.9999983906745911,
        -1.0,
        -1.0
      ],
      "type": "VEC3"
    },
    {
      "bufferView": 1,
      "componentType": 5126,
      "count": 62166,
      "max": [
        0.999754011631012,
        0.9997559785842896
      ],
      "min": [
        0.00024399999529123306,
        0.00025400001322850585
      ],
      "type": "VEC2"
    },
    {
      "bufferView": 0,
      "componentType": 5125,
      "count": 148101,
      "type": "SCALAR"
    }
  ],
  "asset": {
    "extras": {
      "author": "artfletch (https://sketchfab.com/artfletch)",
      "license": "CC-BY-4.0 (http://creativecommons.org/licenses/by/4.0/)",
      "source": "https://sketchfab.com/3d-models/d8-tractor-b26ce56081304c1988ec7490e439d882",
      "title": "D8 Tractor"
    },
    "generator": "Sketchfab-12.74.0",
    "version": "2.0"
  },
  "bufferViews": [
    {
      "buffer": 0,
      "byteLength": 592404,
      "name": "floatBufferViews",
      "target": 34963
    },
    {
      "buffer": 0,
      "byteLength": 497328,
      "byteOffset": 592404,
      "byteStride": 8,
      "name": "floatBufferViews",
      "target": 34962
    },
    {
      "buffer": 0,
      "byteLength": 1491984,
      "byteOffset": 1089732,
      "byteStride": 12,
      "name": "floatBufferViews",
      "target": 34962
    }
  ],
  "buffers": [
    {
      "byteLength": 2581716,
      "uri": "scene.bin"
    }
  ],
  "extensionsUsed": [
    "KHR_materials_unlit"
  ],
  "images": [
    {
      "uri": "textures/CHDD8Tractor_Model_8_u1_v1_baseColor.jpeg"
    }
  ],
  "materials": [
    {
      "extensions": {
        "KHR_materials_unlit": {}
      },
      "name": "CHDD8Tractor_Model_8_u1_v1",
      "pbrMetallicRoughness": {
        "baseColorTexture": {
          "index": 0
        },
        "metallicFactor": 0.0
      }
    }
  ],
  "meshes": [
    {
      "name": "Object_0",
      "primitives": [
        {
          "attributes": {
            "NORMAL": 1,
            "POSITION": 0,
            "TEXCOORD_0": 2
          },
          "indices": 3,
          "material": 0,
          "mode": 4
        }
      ]
    }
  ],
  "nodes": [
    {
      "children": [
        1
      ],
      "matrix": [
        -0.005079197231680155,
        -2.2204174618883432e-16,
        0.9999871253967285,
        0.0,
        0.0,
        -1.0,
        -2.220446049250313e-16,
        0.0,
        0.9999871253967285,
        -1.1278083426447327e-18,
        0.005079197231680155,
        0.0,
        -0.2103036642074585,
        -5.254885196685792,
        5.464123725891112,
        1.0
      ],
      "name": "Sketchfab_model"
    },
    {
      "children": [
        2
      ],
      "name": "CHDD8Tractor07.obj.cleaner.materialmerger.gles"
    },
    {
      "mesh": 0,
      "name": "Object_2"
    }
  ],
  "samplers": [
    {
      "magFilter": 9729,
      "minFilter": 9987,
      "wrapS": 10497,
      "wrapT": 10497
    }
  ],
  "scene": 0,
  "scenes": [
    {
      "name": "Sketchfab_Scene",
      "nodes": [
        0
      ]
    }
  ],
  "textures": [
    {
      "sampler": 0,
      "source": 0
    }
  ]
}
