{
  "accessors": [
    {
      "bufferView": 2,
      "componentType": 5126,
      "count": 65532,
      "max": [
        9.05766487121582,
        15.997368812561035,
        -12.620806694030762
      ],
      "min": [
        -18.183273315429688,
        4.171103000640869,
        -39.06882858276367
      ],
      "type": "VEC3"
    },
    {
      "bufferView": 2,
      "byteOffset": 786384,
      "componentType": 5126,
      "count": 65532,
      "max": [
        0.9999839067459106,
        0.9999775290489197,
        0.999969482421875
      ],
      "min": [
        -0.9999386072158813,
        -0.9987547993659973,
        -0.9999737739562988
      ],
      "type": "VEC3"
    },
    {
      "bufferView": 1,
      "componentType": 5126,
      "count": 65532,
      "max": [
        0.9987305402755737,
        0.9996408224105835
      ],
      "min": [
        5.4469624046760146e-06,
        0.0027479217387735844
      ],
      "type": "VEC2"
    },
    {
      "bufferView": 1,
      "byteOffset": 524256,
      "componentType": 5126,
      "count": 65532,
      "max": [
        0.9987305402755737,
        0.9996408224105835
      ],
      "min": [
        5.4469624046760146e-06,
        0.0027479217387735844
      ],
      "type": "VEC2"
    },
    {
      "bufferView": 0,
      "componentType": 5125,
      "count": 332058,
      "type": "SCALAR"
    },
    {
      "bufferView": 2,
      "byteOffset": 1572768,
      "componentType": 5126,
      "count": 65533,
      "max": [
        8.257808685302734,
        15.708762168884277,
        -12.126083374023438
      ],
      "min": [
        -19.093332290649414,
        3.113896369934082,
        -37.367000579833984
      ],
      "type": "VEC3"
    },
    {
      "bufferView": 2,
      "byteOffset": 2359164,
      "componentType": 5126,
      "count": 65533,
      "max": [
        0.9999839067459106,
        0.9999861121177673,
        0.9999690651893616
      ],
      "min": [
        -0.999928891658783,
        -0.9997506737709045,
        -0.9999548196792603
      ],
      "type": "VEC3"
    },
    {
      "bufferView": 1,
      "byteOffset": 1048512,
      "componentType": 5126,
      "count": 65533,
      "max": [
        0.9987676739692688,
        0.9998841285705566
      ],
      "min": [
        3.1466712243855e-05,
        0.0027693065349012613
      ],
      "type": "VEC2"
    },
    {
      "bufferView": 1,
      "byteOffset": 1572776,
      "componentType": 5126,
      "count": 65533,
      "max": [
        0.9987676739692688,
        0.9998841285705566
      ],
      "min": [
        3.1466712243855e-05,
        0.0027693065349012613
      ],
      "type": "VEC2"
    },
    {
      "bufferView": 0,
      "byteOffset": 1328232,
      "componentType": 5125,
      "count": 316689,
      "type": "SCALAR"
    },
    {
      "bufferView": 2,
      "byteOffset": 3145560,
      "componentType": 5126,
      "count": 22535,
      "max": [
        4.790493965148926,
        16.267826080322266,
        -18.81654167175293
      ],
      "min": [
        -16.01483154296875,
        10.397403717041016,
        -38.82984924316406
      ],
      "type": "VEC3"
    },
    {
      "bufferView": 2,
      "byteOffset": 3415980,
      "componentType": 5126,
      "count": 22535,
      "max": [
        0.9997883439064026,
        0.999976396560669,
        0.9998934864997864
      ],
      "min": [
        -0.9999508261680603,
        -0.9986193776130676,
        -0.9995651245117188
      ],
      "type": "VEC3"
    },
    {
      "bufferView": 1,
      "byteOffset": 2097040,
      "componentType": 5126,
      "count": 22535,
      "max": [
        0.9987738728523254,
        0.9999286532402039
      ],
      "min": [
        5.264201536192559e-05,
        2.0502600818872452e-05
      ],
      "type": "VEC2"
    },
    {
      "bufferView": 1,
      "byteOffset": 2277320,
      "componentType": 5126,
      "count": 22535,
      "max": [
        0.9987738728523254,
        0.9999286532402039
      ],
      "min": [
        5.264201536192559e-05,
        2.0502600818872452e-05
      ],
      "type": "VEC2"
    },
    {
      "bufferView": 0,
      "byteOffset": 2594988,
      "componentType": 5125,
      "count": 105273,
      "type": "SCALAR"
    },
    {
      "bufferView": 2,
      "byteOffset": 3686400,
      "componentType": 5126,
      "count": 65532,
      "max": [
        9.509090423583984,
        16.102691650390625,
        -12.28500747680664
      ],
      "min": [
        -18.921558380126953,
        4.034377574920654,
        -39.058753967285156
      ],
      "type": "VEC3"
    },
    {
      "bufferView": 2,
      "byteOffset": 4472784,
      "componentType": 5126,
      "count": 65532,
      "max": [
        0.999961793422699,
        0.9999931454658508,
        0.9999860525131226
      ],
      "min": [
        -0.9999025464057922,
        -0.9998543858528137,
        -0.9999827742576599
      ],
      "type": "VEC3"
    },
    {
      "bufferView": 1,
      "byteOffset": 2457600,
      "componentType": 5126,
      "count": 65532,
      "max": [
        0.9992607235908508,
        0.9972918629646301
      ],
      "min": [
        6.959176971577108e-05,
        0.0009846395114436746
      ],
      "type": "VEC2"
    },
    {
      "bufferView": 1,
      "byteOffset": 2981856,
      "componentType": 5126,
      "count": 65532,
      "max": [
        0.9992607235908508,
        0.9972918629646301
      ],
      "min": [
        6.959176971577108e-05,
        0.0009846395114436746
      ],
      "type": "VEC2"
    },
    {
      "bufferView": 0,
      "byteOffset": 3016080,
      "componentType": 5125,
      "count": 331416,
      "type": "SCALAR"
    },
    {
      "bufferView": 2,
      "byteOffset": 5259168,
      "componentType": 5126,
      "count": 65532,
      "max": [
        6.893653869628906,
        15.776611328125,
        -12.137518882751465
      ],
      "min": [
        -19.071216583251953,
        3.127335548400879,
        -37.80458450317383
      ],
      "type": "VEC3"
    },
    {
      "bufferView": 2,
      "byteOffset": 6045552,
      "componentType": 5126,
      "count": 65532,
      "max": [
        0.9999561905860901,
        0.9999938011169434,
        0.999953031539917
      ],
      "min": [
        -0.999908983707428,
        -0.9997133016586304,
        -0.9998722672462463
      ],
      "type": "VEC3"
    },
    {
      "bufferView": 1,
      "byteOffset": 3506112,
      "componentType": 5126,
      "count": 65532,
      "max": [
        0.9992501735687256,
        0.9999573230743408
      ],
      "min": [
        4.917336627840996e-05,
        0.001015635090880096
      ],
      "type": "VEC2"
    },
    {
      "bufferView": 1,
      "byteOffset": 4030368,
      "componentType": 5126,
      "count": 65532,
      "max": [
        0.9992501735687256,
        0.9999573230743408
      ],
      "min": [
        4.917336627840996e-05,
        0.001015635090880096
      ],
      "type": "VEC2"
    },
    {
      "bufferView": 0,
      "byteOffset": 4341744,
      "componentType": 5125,
      "count": 319971,
      "type": "SCALAR"
    },
    {
      "bufferView": 2,
      "byteOffset": 6831936,
      "componentType": 5126,
      "count": 20051,
      "max": [
        1.3886208534240723,
        16.267826080322266,
        -19.38445472717285
      ],
      "min": [
        -16.04889678955078,
        10.4968900680542,
        -39.16107940673828
      ],
      "type": "VEC3"
    },
    {
      "bufferView": 2,
      "byteOffset": 7072548,
      "componentType": 5126,
      "count": 20051,
      "max": [
        0.9996629357337952,
        0.9999597072601318,
        0.9998186230659485
      ],
      "min": [
        -0.9997974038124084,
        -0.9988155961036682,
        -0.9999352693557739
      ],
      "type": "VEC3"
    },
    {
      "bufferView": 1,
      "byteOffset": 4554624,
      "componentType": 5126,
      "count": 20051,
      "max": [
        0.9992160797119141,
        0.9999644756317139
      ],
      "min": [
        3.401748836040497e-05,
        4.086131229996681e-05
      ],
      "type": "VEC2"
    },
    {
      "bufferView": 1,
      "byteOffset": 4715032,
      "componentType": 5126,
      "count": 20051,
      "max": [
        0.9992160797119141,
        0.9999644756317139
      ],
      "min": [
        3.401748836040497e-05,
        4.086131229996681e-05
      ],
      "type": "VEC2"
    },
    {
      "bufferView": 0,
      "byteOffset": 5621628,
      "componentType": 5125,
      "count": 94329,
      "type": "SCALAR"
    }
  ],
  "asset": {
    "extras": {
      "author": "matousekfoto (https://sketchfab.com/matousekfoto)",
      "license": "CC-BY-4.0 (http://creativecommons.org/licenses/by/4.0/)",
      "source": "https://sketchfab.com/3d-models/destroyed-construction-debris-f08a177759244ed4a944f61b1622c7c2",
      "title": "Destroyed construction debris"
    },
    "generator": "Sketchfab-12.67.0",
    "version": "2.0"
  },
  "bufferViews": [
    {
      "buffer": 0,
      "byteLength": 5998944,
      "name": "floatBufferViews",
      "target": 34963
    },
    {
      "buffer": 0,
      "byteLength": 4875440,
      "byteOffset": 5998944,
      "byteStride": 8,
      "name": "floatBufferViews",
      "target": 34962
    },
    {
      "buffer": 0,
      "byteLength": 7313160,
      "byteOffset": 10874384,
      "byteStride": 12,
      "name": "floatBufferViews",
      "target": 34962
    }
  ],
  "buffers": [
    {
      "byteLength": 18187544,
      "uri": "scene.bin"
    }
  ],
  "extensionsUsed": [
    "KHR_materials_unlit"
  ],
  "images": [
    {
      "uri": "textures/material0_baseColor.jpeg"
    },
    {
      "uri": "textures/material1_baseColor.jpeg"
    }
  ],
  "materials": [
    {
      "doubleSided": true,
      "extensions": {
        "KHR_materials_unlit": {}
      },
      "name": "material0",
      "pbrMetallicRoughness": {
        "baseColorTexture": {
          "index": 0
        },
        "metallicFactor": 0.0
      }
    },
    {
      "doubleSided": true,
      "extensions": {
        "KHR_materials_unlit": {}
      },
      "name": "material1",
      "pbrMetallicRoughness": {
        "baseColorTexture": {
          "index": 1
        },
        "metallicFactor": 0.0
      }
    }
  ],
  "meshes": [
    {
      "name": "Model_material0_0",
      "primitives": [
        {
          "attributes": {
            "NORMAL": 1,
            "POSITION": 0,
            "TEXCOORD_0": 2,
            "TEXCOORD_1": 3
          },
          "indices": 4,
          "material": 0,
          "mode": 4
        }
      ]
    },
    {
      "name": "Model_material0_0",
      "primitives": [
        {
          "attributes": {
            "NORMAL": 6,
            "POSITION": 5,
            "TEXCOORD_0": 7,
            "TEXCOORD_1": 8
          },
          "indices": 9,
          "material": 0,
          "mode": 4
        }
      ]
    },
    {
      "name": "Model_material0_0",
      "primitives": [
        {
          "attributes": {
            "NORMAL": 11,
            "POSITION": 10,
            "TEXCOORD_0": 12,
            "TEXCOORD_1": 13
          },
          "indices": 14,
          "material": 0,
          "mode": 4
        }
      ]
    },
    {
      "name": "Model_material1_0",
      "primitives": [
        {
          "attributes": {
            "NORMAL": 16,
            "POSITION": 15,
            "TEXCOORD_0": 17,
            "TEXCOORD_1": 18
          },
          "indices": 19,
          "material": 1,
          "mode": 4
        }
      ]
    },
    {
      "name": "Model_material1_0",
      "primitives": [
        {
          "attributes": {
            "NORMAL": 21,
            "POSITION": 20,
            "TEXCOORD_0": 22,
            "TEXCOORD_1": 23
          },
          "indices": 24,
          "material": 1,
          "mode": 4
        }
      ]
    },
    {
      "name": "Model_material1_0",
      "primitives": [
        {
          "attributes": {
            "NORMAL": 26,
            "POSITION": 25,
            "TEXCOORD_0": 27,
            "TEXCOORD_1": 28
          },
          "indices": 29,
          "material": 1,
          "mode": 4
        }
      ]
    }
  ],
  "nodes": [
    {
      "children": [
        1
      ],
      "matrix": [
        0.09074354442189758,
        0.005483822891175882,
        2.802701689688192e-17,
        0.0,
        0.00494522311307477,
        -0.08183106752997561,
        0.03928974929773597,
        0.0,
        0.002370038225082971,
        -0.03921820204745694,
        -0.08198035549517081,
        0.0,
        -0.15010544657707214,
        28.272226333618157,
        37.004318237304695,
        1.0
      ],
      "name": "Sketchfab_model"
    },
    {
      "children": [
        2
      ],
      "matrix": [
        1.0,
        0.0,
        0.0,
        0.0,
        0.0,
        -1.0,
        0.0,
        0.0,
        0.0,
        0.0,
        -1.0,
        0.0,
        0.0,
        0.0,
        0.0,
        1.0
      ],
      "name": "destroyed-debris.fbx"
    },
    {
      "children": [
        3
      ],
      "name": "RootNode"
    },
    {
      "children": [
        4,
        5,
        6,
        7,
        8,
        9
      ],
      "name": "Model"
    },
    {
      "mesh": 0,
      "name": "Model_material0_0"
    },
    {
      "mesh": 1,
      "name": "Model_material0_0"
    },
    {
      "mesh": 2,
      "name": "Model_material0_0"
    },
    {
      "mesh": 3,
      "name": "Model_material1_0"
    },
    {
      "mesh": 4,
      "name": "Model_material1_0"
    },
    {
      "mesh": 5,
      "name": "Model_material1_0"
    }
  ],
  "samplers": [
    {
      "magFilter": 9729,
      "minFilter": 9987,
      "wrapS": 10497,
      "wrapT": 10497
    }
  ],
  "scene": 0,
  "scenes": [
    {
      "name": "Sketchfab_Scene",
      "nodes": [
        0
      ]
    }
  ],
  "textures": [
    {
      "sampler": 0,
      "source": 0
    },
    {
      "sampler": 0,
      "source": 1
    }
  ]
}
