{
  "accessors": [
    {
      "bufferView": 2,
      "componentType": 5126,
      "count": 4580,
      "max": [
        271.916015625,
        315.9664306640625,
        54.45368576049805
      ],
      "min": [
        -365.6673278808594,
        -261.48602294921875,
        -8.52476692199707
      ],
      "type": "VEC3"
    },
    {
      "bufferView": 2,
      "byteOffset": 54960,
      "componentType": 5126,
      "count": 4580,
      "max": [
        0.9888626337051392,
        0.9736230373382568,
        0.9999961853027344
      ],
      "min": [
        -0.9407693147659302,
        -0.98543381690979,
        -0.4802068769931793
      ],
      "type": "VEC3"
    },
    {
      "bufferView": 3,
      "componentType": 5126,
      "count": 4580,
      "max": [
        0.9315996766090393,
        0.9999961853027344,
        0.9879201054573059,
        1.0
      ],
      "min": [
        -0.8781565427780151,
        -0.9999961853027344,
        -0.9886112809181213,
        -1.0
      ],
      "type": "VEC4"
    },
    {
      "bufferView": 1,
      "componentType": 5126,
      "count": 4580,
      "max": [
        0.9971326589584351,
        0.9989145398139954
      ],
      "min": [
        0.001979738473892212,
        0.0019948482513427734
      ],
      "type": "VEC2"
    },
    {
      "bufferView": 1,
      "byteOffset": 36640,
      "componentType": 5126,
      "count": 4580,
      "max": [
        0.9971326589584351,
        0.9989145398139954
      ],
      "min": [
        0.001979738473892212,
        0.0019948482513427734
      ],
      "type": "VEC2"
    },
    {
      "bufferView": 1,
      "byteOffset": 73280,
      "componentType": 5126,
      "count": 4580,
      "max": [
        0.9971326589584351,
        0.9989145398139954
      ],
      "min": [
        0.001979738473892212,
        0.0019948482513427734
      ],
      "type": "VEC2"
    },
    {
      "bufferView": 1,
      "byteOffset": 109920,
      "componentType": 5126,
      "count": 4580,
      "max": [
        0.9971326589584351,
        0.9989145398139954
      ],
      "min": [
        0.001979738473892212,
        0.0019948482513427734
      ],
      "type": "VEC2"
    },
    {
      "bufferView": 1,
      "byteOffset": 146560,
      "componentType": 5126,
      "count": 4580,
      "max": [
        0.9971326589584351,
        0.9989145398139954
      ],
      "min": [
        0.001979738473892212,
        0.0019948482513427734
      ],
      "type": "VEC2"
    },
    {
      "bufferView": 1,
      "byteOffset": 183200,
      "componentType": 5126,
      "count": 4580,
      "max": [
        0.9971326589584351,
        0.9989145398139954
      ],
      "min": [
        0.001979738473892212,
        0.0019948482513427734
      ],
      "type": "VEC2"
    },
    {
      "bufferView": 1,
      "byteOffset": 219840,
      "componentType": 5126,
      "count": 4580,
      "max": [
        0.9971326589584351,
        0.9989145398139954
      ],
      "min": [
        0.001979738473892212,
        0.0019948482513427734
      ],
      "type": "VEC2"
    },
    {
      "bufferView": 1,
      "byteOffset": 256480,
      "componentType": 5126,
      "count": 4580,
      "max": [
        0.9971326589584351,
        0.9989145398139954
      ],
      "min": [
        0.001979738473892212,
        0.0019948482513427734
      ],
      "type": "VEC2"
    },
    {
      "bufferView": 1,
      "byteOffset": 293120,
      "componentType": 5126,
      "count": 4580,
      "max": [
        0.9971326589584351,
        0.9989145398139954
      ],
      "min": [
        0.001979738473892212,
        0.0019948482513427734
      ],
      "type": "VEC2"
    },
    {
      "bufferView": 0,
      "componentType": 5125,
      "count": 26226,
      "type": "SCALAR"
    }
  ],
  "asset": {
    "extras": {
      "author": "MrUnity (https://sketchfab.com/MrUnityCreations)",
      "license": "CC-BY-4.0 (http://creativecommons.org/licenses/by/4.0/)",
      "source": "https://sketchfab.com/3d-models/pile-of-construction-waste-3d-scan-8k-pbr-dd40f5b267f84146ad7ec912cf12fbe8",
      "title": "Pile of construction waste [3D SCAN; 8K; PBR]"
    },
    "generator": "Sketchfab-12.66.0",
    "version": "2.0"
  },
  "bufferViews": [
    {
      "buffer": 0,
      "byteLength": 104904,
      "name": "floatBufferViews",
      "target": 34963
    },
    {
      "buffer": 0,
      "byteLength": 329760,
      "byteOffset": 104904,
      "byteStride": 8,
      "name": "floatBufferViews",
      "target": 34962
    },
    {
      "buffer": 0,
      "byteLength": 109920,
      "byteOffset": 434664,
      "byteStride": 12,
      "name": "floatBufferViews",
      "target": 34962
    },
    {
      "buffer": 0,
      "byteLength": 73280,
      "byteOffset": 544584,
      "byteStride": 16,
      "name": "floatBufferViews",
      "target": 34962
    }
  ],
  "buffers": [
    {
      "byteLength": 617864,
      "uri": "scene.bin"
    }
  ],
  "images": [
    {
      "uri": "textures/NewMat01_baseColor.jpeg"
    },
    {
      "uri": "textures/NewMat01_metallicRoughness.png"
    },
    {
      "uri": "textures/NewMat01_normal.jpeg"
    }
  ],
  "materials": [
    {
      "name": "NewMat01",
      "normalTexture": {
        "index": 2
      },
      "occlusionTexture": {
        "index": 1
      },
      "pbrMetallicRoughness": {
        "baseColorTexture": {
          "index": 0
        },
        "metallicFactor": 0.0,
        "metallicRoughnessTexture": {
          "index": 1
        }
      }
    }
  ],
  "meshes": [
    {
      "name": "Model_NewMat01_0",
      "primitives": [
        {
          "attributes": {
            "NORMAL": 1,
            "POSITION": 0,
            "TANGENT": 2,
            "TEXCOORD_0": 3,
            "TEXCOORD_1": 4,
            "TEXCOORD_2": 5,
            "TEXCOORD_3": 6,
            "TEXCOORD_4": 7,
            "TEXCOORD_5": 8,
            "TEXCOORD_6": 9,
            "TEXCOORD_7": 10,
            "TEXCOORD_8": 11
          },
          "indices": 12,
          "material": 0,
          "mode": 4
        }
      ]
    }
  ],
  "nodes": [
    {
      "children": [
        1
      ],
      "matrix": [
        2.3284190319827758e-05,
        0.0,
        0.0,
        0.0,
        0.0,
        5.170128840565393e-21,
        -2.3284190319827758e-05,
        0.0,
        0.0,
        2.3284190319827758e-05,
        5.170128840565393e-21,
        0.0,
        0.0,
        0.0,
        0.0,
        1.0
      ],
      "name": "Sketchfab_model"
    },
    {
      "children": [
        2
      ],
      "matrix": [
        1.0,
        0.0,
        0.0,
        0.0,
        0.0,
        0.0,
        1.0,
        0.0,
        0.0,
        -1.0,
        0.0,
        0.0,
        0.0,
        0.0,
        0.0,
        1.0
      ],
      "name": "a55af9bcf1224be1843f5fbd1e688bed.fbx"
    },
    {
      "children": [
        3
      ],
      "name": "RootNode"
    },
    {
      "children": [
        4
      ],
      "name": "Garbage_scan"
    },
    {
      "children": [
        5
      ],
      "matrix": [
        100.0,
        0.0,
        0.0,
        0.0,
        0.0,
        -2.220446049250313e-14,
        -100.0,
        0.0,
        0.0,
        100.0,
        -2.220446049250313e-14,
        0.0,
        0.0,
        0.0,
        0.0,
        1.0
      ],
      "name": "Model"
    },
    {
      "mesh": 0,
      "name": "Model_NewMat01_0"
    }
  ],
  "samplers": [
    {
      "magFilter": 9729,
      "minFilter": 9987,
      "wrapS": 10497,
      "wrapT": 10497
    }
  ],
  "scene": 0,
  "scenes": [
    {
      "name": "Sketchfab_Scene",
      "nodes": [
        0
      ]
    }
  ],
  "textures": [
    {
      "sampler": 0,
      "source": 0
    },
    {
      "sampler": 0,
      "source": 1
    },
    {
      "sampler": 0,
      "source": 2
    }
  ]
}
